<svg width="48" height="48" xmlns="http://www.w3.org/2000/svg">

 <g>
  <title>background</title>
  <rect fill="none" id="canvas_background" height="402" width="582" y="-1" x="-1"/>
 </g>
 <g>
  <title>Layer 1</title>
  <path id="svg_2" fill="#F4F4F4" d="m35.24081,27.28716l-0.00455,6.35106c0,1.51155 -1.14731,2.74078 -2.54954,2.74078l-17.37341,0c-1.41135,0 -2.55866,-1.22923 -2.55866,-2.74078l0.00455,-6.34194c0.44616,0.06369 0.91055,0.08192 1.36583,0.05463l-0.00455,6.28731c0,0.75578 0.53725,1.37495 1.19282,1.37495l17.37341,0c0.65557,0 1.18371,-0.61917 1.18371,-1.37495l0.00454,-6.29643c0.4553,0.0364 0.91969,0.01817 1.36585,-0.05463z"/>
  <path id="svg_3" fill="#5F83CF" d="m17.13441,24.09561c0,1.26567 -1.44778,1.94859 -3.01394,2.04875c-0.45528,0.03642 -0.91966,0.01821 -1.36583,-0.05463c-1.34762,-0.20943 -2.47671,-0.87413 -2.47671,-1.99412l3.14709,-11.43638c0.16876,-0.61327 0.72645,-1.03823 1.36252,-1.03823l18.42491,0c0.63607,0 1.19376,0.42495 1.36252,1.03823l3.14709,11.43638c0,1.11998 -1.1382,1.78469 -2.48582,1.99412c-0.44617,0.06374 -0.91056,0.08195 -1.36583,0.05463c-1.56615,-0.10016 -3.00483,-0.78308 -3.00483,-2.04875l-0.00749,-0.00074c0,2.75728 -6.86018,2.75728 -6.86018,0c0,2.75728 -6.86018,2.75728 -6.86018,0l-0.00332,0.00074z"/>
  <path id="svg_4" fill="none" stroke="#303030" stroke-width="0.7" stroke-linecap="round" stroke-linejoin="round" stroke-miterlimit="10" d="m35.24081,27.28716l-0.00455,6.35106c0,1.51155 -1.14731,2.74078 -2.54954,2.74078l-17.37341,0c-1.41135,0 -2.55866,-1.22923 -2.55866,-2.74078l0.00455,-6.34194c0.44616,0.06369 0.91055,0.08192 1.36583,0.05463l-0.00455,6.28731c0,0.75578 0.53725,1.37495 1.19282,1.37495l17.37341,0c0.65557,0 1.18371,-0.61917 1.18371,-1.37495l0.00454,-6.29643c0.4553,0.0364 0.91969,0.01817 1.36585,-0.05463z"/>
  <path id="svg_5" fill="none" stroke="#303030" stroke-width="0.7" stroke-linecap="round" stroke-linejoin="round" stroke-miterlimit="10" d="m17.22238,24.00764c0,1.26567 -1.44778,1.94859 -3.01394,2.04875c-0.45528,0.03642 -0.91966,0.01821 -1.36583,-0.05463c-1.34762,-0.20943 -2.47671,-0.87413 -2.47671,-1.99412l3.14709,-11.43638c0.16876,-0.61327 0.72645,-1.03823 1.36252,-1.03823l18.42491,0c0.63607,0 1.19376,0.42495 1.36252,1.03823l3.14709,11.43638c0,1.11998 -1.1382,1.78469 -2.48582,1.99412c-0.44617,0.06374 -0.91056,0.08195 -1.36583,0.05463c-1.56615,-0.10016 -3.00483,-0.78308 -3.00483,-2.04875l-0.00749,-0.00074c0,2.75728 -6.86018,2.75728 -6.86018,0c0,2.75728 -6.86018,2.75728 -6.86018,0l-0.00332,0.00074z"/>
  <path id="svg_6" fill="none" stroke="#303030" stroke-width="0.7" stroke-linecap="round" stroke-linejoin="round" stroke-miterlimit="10" d="m12.75919,27.29625c0.44617,0.06374 0.91056,0.08195 1.36583,0.05463"/>
  <path id="svg_7" fill="none" stroke="#303030" stroke-width="0.7" stroke-linecap="round" stroke-linejoin="round" stroke-miterlimit="10" d="m33.87497,27.34178c0.45528,0.03642 0.91966,0.01821 1.36583,-0.05463"/>
  <line id="svg_8" fill="none" stroke="#303030" stroke-width="0.7" stroke-linecap="round" stroke-linejoin="round" stroke-miterlimit="10" y2="13.86694" y1="13.86694" x2="24.56307" x1="16.37364"/>
  <line id="svg_9" fill="none" stroke="#303030" stroke-width="0.7" stroke-linecap="round" stroke-linejoin="round" stroke-miterlimit="10" y2="13.86694" y1="13.86694" x2="30.0816" x1="27.77735"/>
 </g>
</svg>